<svg version="1.1" xmlns="http://www.w3.org/2000/svg" xmlns:xlink="http://www.w3.org/1999/xlink" x="0px" y="0px" viewBox="0 0 256 256" enable-background="new 0 0 256 256" xml:space="preserve">
<g><g><g><path fill="#000000" d="M196.8,10.6c-10.2,3.4-16.3,11.7-16.3,22.2c0.1,2.8,0.4,5.1,1.1,7.1c0.6,1.6,1.1,3.2,1.2,3.5c0.1,0.4-10.7,12-24,25.9c-13.2,13.9-25,26.3-26.1,27.5l-1.9,2.2l-3.2-1.4c-5.1-2.3-10-3.2-15.2-2.9c-16.9,1.1-29.6,14.6-29.6,31.5c0,8.7,3.1,16,9.1,22c5.5,5.5,10.9,8.1,19,9.3l4.5,0.6l5.8,22.7l5.8,22.8l-3.2,2.8c-2.4,2.1-3.7,3.9-5.2,7c-2,4-2,4.2-2,10c0,5.8,0.1,6.1,2,10c2.5,5,6,8.5,11,10.8c3.4,1.6,4,1.7,9.5,1.7s6.1-0.1,9.5-1.7c5-2.4,8.6-5.8,11-10.8c1.9-3.9,2-4.2,2-10c0-5.5-0.1-6.1-1.7-9.4c-3.2-6.8-8.4-10.9-15.8-12.8l-4-1l-5.7-22.4c-3.2-12.4-5.8-22.7-5.8-23c0-0.3,1.6-1.6,3.4-2.8c8.1-5.3,13-14,13.6-24.2c0.4-6-0.5-10.1-3.3-15.8l-1.8-3.7l26.3-27.6c14.5-15.1,26.5-27.4,26.9-27.3c6,2.6,13.6,2.5,19.3-0.1c4.7-2.2,9-6.5,11.2-11.2c1.6-3.4,1.7-4,1.7-9.5s-0.1-6.1-1.7-9.5c-2.4-5-5.8-8.6-10.8-11c-3.6-1.8-4.5-2-9.2-2.1C200.9,9.9,198.1,10.1,196.8,10.6z M207.7,20.7c2.6,0.8,6.3,4.4,7.3,7.1c1.4,3.6,0.9,8.7-1.2,11.6c-2.6,3.7-5.5,5.4-9.5,5.7c-4.3,0.3-6.8-0.5-9.6-3.1c-2.8-2.5-4.3-5.9-4.3-9.8c0.1-3.4,1.1-5.8,3.6-8.4C197.8,19.9,202,19,207.7,20.7z M121.2,109.8c5.4,2.5,8.8,6.5,10.2,12.2c2.5,9.8-4.1,19.9-14.3,21.8c-7.8,1.4-15.8-2.7-19.3-9.8c-1.8-3.5-2.1-9.8-0.8-13.7c1.8-5.4,6.8-10,12.5-11.6C112.9,107.7,117.8,108.2,121.2,109.8z M145.7,212.8c3.7,2.6,5.4,5.6,5.7,9.6c0.3,4.3-0.5,6.8-3.1,9.6c-5,5.6-13.4,5.7-18.7,0.3c-6-6.2-4-16.6,3.9-20.4c1.6-0.7,3.1-1,6-0.9C142.8,211.2,143.7,211.4,145.7,212.8z"/><path fill="#000000" d="M57.5,12c-4.9,1.2-8.6,4.4-10.7,9.1c-1.5,3.4-1.1,9.7,0.9,13.1c2.9,4.9,7.2,7.3,13,7.3c6.2,0,10.7-2.7,13.6-8.3c1.1-2.1,1.4-3.4,1.4-6.4c-0.1-4.5-0.9-6.9-4-10.1C68,12.6,62.4,10.8,57.5,12z"/><path fill="#000000" d="M69.4,45.7c-2.3,2.4-2.1,4,1.7,11.2c3.8,7,4.8,8.2,7.3,8.2c2.5,0,3.8-0.9,4.7-2.9c1-2.3,0.7-3-3.3-10.6c-3.4-6.3-4.5-7.5-7.5-7.5C71.6,44.2,70.4,44.8,69.4,45.7z"/><path fill="#000000" d="M85.1,72.2c-1.4,0.9-2.7,2.8-2.7,4.3c0,1.5,6.3,13.2,7.8,14.6c2,1.8,4.7,1.7,6.7-0.3c1-1,1.6-2.1,1.6-3.1c0-1.5-6.4-14-7.7-15.2C89.5,71.6,86.5,71.4,85.1,72.2z"/><path fill="#000000" d="M147.3,143.1c-2,1.7-2.5,3.6-1.4,5.8c0.7,1.4,2.3,2.5,8.3,5.9c8.1,4.5,9.4,4.8,11.7,2.3c1.6-1.7,1.9-3.3,1-5.3c-0.6-1.6-2-2.5-8-6c-4-2.3-7.8-4.1-8.6-4.1C149.5,141.7,148.2,142.3,147.3,143.1z"/><path fill="#000000" d="M67.9,145.8c-7.6,4.3-8.6,5.1-8.6,7.7s1.7,4.7,4,5.1c1.6,0.3,2.7-0.2,8.8-3.5c3.9-2.1,7.5-4.5,8.1-5.2c1.4-1.9,1.3-4-0.3-6C77.7,141.2,75.3,141.6,67.9,145.8z"/><path fill="#000000" d="M32.9,152.7c-7.3,2.6-11.7,10-10.1,17.2c3.2,14.3,22.1,16.4,28.3,3.2c1.7-3.5,1.7-8.6,0.2-12.1C48.1,154,39.7,150.3,32.9,152.7z"/><path fill="#000000" d="M177,160.2c-1.7,1.7-2.1,3.7-1.3,5.7c0.5,1.3,2.2,2.5,7.7,5.6c3.9,2.2,7.4,4,7.8,4.1c3.4,0.4,5.9-1.5,5.9-4.6c0-1.1-0.2-2.4-0.5-2.9c-0.3-0.5-3.8-2.8-7.7-5.1C180.9,158.5,179.1,158,177,160.2z"/><path fill="#000000" d="M216,169.7c-3.6,0.7-5.9,2-8.5,4.9c-3.8,4.2-4.8,8.8-3.2,14.4c1.2,3.9,5.8,8.6,9.6,9.7c10.1,2.9,19.6-4,19.6-14.3C233.5,175,225.1,167.9,216,169.7z"/></g></g></g>
</svg>